<svg xmlns="http://www.w3.org/2000/svg" viewBox="0 0 312.8 390.64"><title>cards</title><g id="Capa_2" data-name="Capa 2"><g id="Capa_1-2" data-name="Capa 1"><path d="M212.48,68.32H30.88A30.9,30.9,0,0,0,0,99.2V359.76a30.9,30.9,0,0,0,30.88,30.88h181.6a30.9,30.9,0,0,0,30.88-30.88V99.2a31,31,0,0,0-30.88-30.88Zm9.2,291.36A9.29,9.29,0,0,1,212.4,369H30.8a9.29,9.29,0,0,1-9.28-9.28V99.2a9.28,9.28,0,0,1,9.28-9.28H212.4a9.28,9.28,0,0,1,9.28,9.28Zm0,0"/><path d="M281.92,0H100.32A30.9,30.9,0,0,0,69.44,30.88a10.8,10.8,0,1,0,21.6,0,9.29,9.29,0,0,1,9.28-9.28h181.6a9.29,9.29,0,0,1,9.28,9.28V291.44a9.29,9.29,0,0,1-9.28,9.28,10.8,10.8,0,1,0,0,21.6,30.9,30.9,0,0,0,30.88-30.88V30.88A30.9,30.9,0,0,0,281.92,0Zm0,0"/></g></g></svg>