<svg xmlns="http://www.w3.org/2000/svg" xmlns:xlink="http://www.w3.org/1999/xlink" viewBox="0 0 51.2 50.84"><defs><style>.cls-1{fill:none;}.cls-2{clip-path:url(#clip-path);}.cls-3{fill:#1d1d1b;}</style><clipPath id="clip-path" transform="translate(0 -0.04)"><rect class="cls-1" width="51.84" height="51.84"/></clipPath></defs><title>close</title><g id="Capa_2" data-name="Capa 2"><g id="Capa_1-2" data-name="Capa 1"><g class="cls-2"><path class="cls-3" d="M23.15,25.47.49,48.13a1.61,1.61,0,0,0,0,2.28,1.61,1.61,0,0,0,2.28,0L25.6,27.58,48.43,50.41a1.61,1.61,0,0,0,2.28,0,1.61,1.61,0,0,0,0-2.28L28.05,25.47,50.73,2.79A1.61,1.61,0,1,0,48.45.51L25.6,23.36,2.75.51A1.61,1.61,0,0,0,.47,2.79Zm0,0" transform="translate(0 -0.04)"/></g></g></g></svg>