<svg xmlns="http://www.w3.org/2000/svg" viewBox="0 0 182.46 146.48"><defs><style>.cls-1{fill:#f90;}.cls-2{fill:#0478dd;}</style></defs><title>xaca-isotipo-color</title><g id="Capa_2" data-name="Capa 2"><g id="Capa_2-2" data-name="Capa 2"><path class="cls-1" d="M-16.08,51.53H155.11A43.43,43.43,0,0,1,198.53,95v0a0,0,0,0,1,0,0H27.35A43.43,43.43,0,0,1-16.08,51.53v0a0,0,0,0,1,0,0Z" transform="translate(207.53 60.52) rotate(135)"/><path class="cls-2" d="M27.35,51.53H198.53a0,0,0,0,1,0,0v0A43.43,43.43,0,0,1,155.11,95H-16.08a0,0,0,0,1,0,0v0A43.43,43.43,0,0,1,27.35,51.53Z" transform="translate(103.95 189.54) rotate(-135)"/></g></g></svg>