<svg xmlns="http://www.w3.org/2000/svg" viewBox="0 0 330.53 146.48"><defs><style>.cls-1{fill:#f4f4f4;}.cls-2{fill:#ddd;}</style></defs><title>xaca-logo-w</title><g id="Capa_2" data-name="Capa 2"><g id="Capa_2-2" data-name="Capa 2"><path class="cls-1" d="M-16.08,51.53H155.11A43.43,43.43,0,0,1,198.53,95v0a0,0,0,0,1,0,0H27.35A43.43,43.43,0,0,1-16.08,51.53v0a0,0,0,0,1,0,0Z" transform="translate(207.53 60.52) rotate(135)"/><polygon class="cls-2" points="91.23 42.53 121.94 73.24 103.52 30.25 91.23 42.53"/><path class="cls-1" d="M27.35,51.53H198.53a0,0,0,0,1,0,0v0A43.43,43.43,0,0,1,155.11,95H-16.08a0,0,0,0,1,0,0v0A43.43,43.43,0,0,1,27.35,51.53Z" transform="translate(103.95 189.54) rotate(-135)"/><path class="cls-1" d="M207.71,50.93q6.42,6.27,6.42,18.93V104.6H202V97.38a15.26,15.26,0,0,1-6.73,5.94,24.6,24.6,0,0,1-10.53,2.05A24.17,24.17,0,0,1,174,103.1a16.72,16.72,0,0,1-9.66-15.49,16.22,16.22,0,0,1,5.5-12.82Q175.3,70,187.12,70h14.18v-.89q0-6.22-3.44-9.55T187.63,56.2a27.51,27.51,0,0,0-9.09,1.55A21.89,21.89,0,0,0,171,62.09L166,52a30.29,30.29,0,0,1,10.38-5.44,43,43,0,0,1,12.84-1.89Q201.29,44.66,207.71,50.93ZM196,92.89a12.78,12.78,0,0,0,5.29-6.83V79.18H188q-11.09,0-11.09,7.88a7.27,7.27,0,0,0,2.77,6q2.77,2.22,7.71,2.22A15.62,15.62,0,0,0,196,92.89Z"/><path class="cls-1" d="M237.86,101.49a27.37,27.37,0,0,1-10.58-10.82A32.13,32.13,0,0,1,223.48,75a31.82,31.82,0,0,1,3.8-15.65,27.59,27.59,0,0,1,10.53-10.77,30.16,30.16,0,0,1,15.36-3.88,27.82,27.82,0,0,1,14.23,3.55,22.35,22.35,0,0,1,9.19,10.21l-9.86,6.22a16.3,16.3,0,0,0-5.91-6.16,15.2,15.2,0,0,0-7.76-2.05,15.62,15.62,0,0,0-11.92,5.05q-4.73,5.05-4.73,13.49t4.67,13.49a15.57,15.57,0,0,0,12,5.05,15.19,15.19,0,0,0,7.76-2.05,16.27,16.27,0,0,0,5.91-6.16l9.86,6.22a23.28,23.28,0,0,1-9.3,10.27,27.27,27.27,0,0,1-14.13,3.61A30.21,30.21,0,0,1,237.86,101.49Z"/><path class="cls-1" d="M324.11,50.93q6.42,6.27,6.42,18.93V104.6H318.41V97.38a15.26,15.26,0,0,1-6.73,5.94,24.6,24.6,0,0,1-10.53,2.05,24.17,24.17,0,0,1-10.79-2.28,16.71,16.71,0,0,1-9.66-15.49,16.22,16.22,0,0,1,5.5-12.82Q291.69,70,303.51,70h14.18v-.89q0-6.22-3.44-9.55T304,56.2a27.51,27.51,0,0,0-9.09,1.55,21.89,21.89,0,0,0-7.55,4.33l-5-10.1a30.29,30.29,0,0,1,10.38-5.44,43,43,0,0,1,12.84-1.89Q317.68,44.66,324.11,50.93Zm-11.71,42a12.78,12.78,0,0,0,5.29-6.83V79.18H304.43q-11.09,0-11.09,7.88a7.27,7.27,0,0,0,2.77,6q2.77,2.22,7.71,2.22A15.62,15.62,0,0,0,312.4,92.89ZM311.93,22H327L309.16,37.22H298.06Z"/></g></g></svg>